<svg width="100" height="100" viewBox="0 0 100 100" fill="none" xmlns="http://www.w3.org/2000/svg">
<path d="M0 50C0 22.3858 22.3858 0 50 0C77.6142 0 100 22.3858 100 50C100 77.6142 77.6142 100 50 100C22.3858 100 0 77.6142 0 50Z" fill="white"/>
<path d="M52.2006 22.6145C52.7212 22.439 53.2895 22.4424 53.7271 22.7862C54.1688 23.1334 54.3051 23.691 54.249 24.2399C54.1897 24.8228 54.0951 25.4048 54.0119 25.9564C53.9274 26.5162 53.8527 27.054 53.8235 27.5877C53.6829 30.233 53.507 32.8451 53.5305 35.4555L53.548 36.4995C53.6667 41.366 54.3197 46.1835 55.3093 50.9693L55.5267 51.9946L55.5534 52.0951C55.562 52.1198 55.5695 52.1354 55.5743 52.1441C55.5792 52.1459 55.5868 52.1472 55.5965 52.1499C55.6317 52.1595 55.689 52.1703 55.7812 52.1767C58.1187 52.3386 60.4618 52.6866 62.7125 53.5476L62.9148 53.6329C63.1109 53.7234 63.2917 53.8279 63.4553 53.9283C63.6942 54.0746 63.8608 54.1876 64.0669 54.3066L64.5238 54.5705L64.1808 55.3833L63.9832 55.8479L63.4938 55.73C61.1086 55.1576 58.6606 54.8925 56.2091 54.9359C56.4165 55.7452 56.6116 56.5158 56.8334 57.2889C58.0561 61.5377 59.4463 65.6654 61.7186 69.4199L62.1126 70.054C63.0459 71.5107 64.0912 72.8027 65.5213 73.7158L65.8584 73.919C67.5415 74.8751 69.2246 74.968 70.9133 73.982C72.7338 72.919 73.5487 71.2951 73.4581 69.1665L73.4569 69.1548V69.1432C73.4567 69.0544 73.461 68.9653 73.4697 68.8769L73.5186 68.39L74.0034 68.341L74.2114 68.3212L74.8253 68.2592L74.8648 68.8769C74.8853 69.1962 74.9273 69.4757 74.9636 69.8462C74.9888 70.1036 75.0086 70.3826 74.9962 70.6693L74.9718 70.9589C74.3301 76.102 69.1968 78.8454 64.2959 76.8417C61.9781 75.8928 60.2128 74.3013 58.7644 72.4069L58.4785 72.0238C56.4405 69.2244 55.0196 66.1343 53.8526 62.9638L53.3666 61.6C53.0057 60.5492 52.6754 59.4902 52.3576 58.4321L51.4228 55.2664C51.4114 55.2277 51.4007 55.1958 51.3914 55.1684C47.0483 55.5554 42.9169 56.5429 39.1298 58.6071L38.3765 59.0346C35.5975 60.6756 33.6475 63.0326 32.4277 65.9437L32.194 66.5334C31.6233 68.0513 31.0957 69.5853 30.5839 71.1282L29.069 75.778C28.8653 76.4031 28.5411 76.948 28.0053 77.2516C27.5274 77.5223 26.9828 77.5444 26.4172 77.4103L26.1743 77.3439C25.8142 77.2322 25.389 77.0583 25.1582 76.6666C24.9146 76.2528 24.9945 75.7914 25.1175 75.4066L26.2545 71.8312C26.6402 70.6352 27.0404 69.4402 27.4752 68.2592L28.275 66.1143C32.0491 56.1222 36.415 46.3863 41.7573 37.0996L42.9175 35.1158C44.9754 31.6545 47.2983 28.337 49.5115 25.0118L49.6801 24.7712C50.0887 24.2181 50.5847 23.7335 51.0322 23.3046L51.0391 23.2999L51.1659 23.1867C51.4708 22.9319 51.8221 22.7387 52.2006 22.6145ZM48.9199 32.5842C44.0715 40.116 40.0203 47.9283 36.4815 56.016C38.4373 54.8564 40.5649 54.0014 42.7908 53.4869L43.8417 53.2557C46.1016 52.7793 48.3969 52.4202 50.6741 52.0156C49.4367 45.7209 48.6477 39.2649 48.9199 32.5842Z" fill="url(#paint0_linear_87178_94365)" stroke="url(#paint1_linear_87178_94365)" stroke-width="0.75"/>
<defs>
<linearGradient id="paint0_linear_87178_94365" x1="49.9999" y1="23.0968" x2="49.9999" y2="76.9036" gradientUnits="userSpaceOnUse">
<stop stop-color="#6932D5"/>
<stop offset="1" stop-color="#7163C6"/>
</linearGradient>
<linearGradient id="paint1_linear_87178_94365" x1="50" y1="22.5" x2="50" y2="77.5" gradientUnits="userSpaceOnUse">
<stop stop-color="#6932D5"/>
<stop offset="1" stop-color="#7163C6"/>
</linearGradient>
</defs>
</svg>
