<svg width="100" height="100" viewBox="0 0 100 100" fill="none" xmlns="http://www.w3.org/2000/svg">
<path d="M0 50C0 22.3858 22.3858 0 50 0C77.6142 0 100 22.3858 100 50C100 77.6142 77.6142 100 50 100C22.3858 100 0 77.6142 0 50Z" fill="white"/>
<path d="M52.0245 25.1041C52.5035 24.9446 53.0263 24.9476 53.4289 25.2602C53.8353 25.5758 53.9607 26.0827 53.9091 26.5818C53.8545 27.1116 53.7675 27.6407 53.6909 28.1422C53.6133 28.6511 53.5445 29.14 53.5176 29.6252C53.3883 32.03 53.2264 34.4046 53.2481 36.7777L53.2642 37.7268C53.3734 42.1509 53.9741 46.5304 54.8846 50.8812L55.0846 51.8133L55.1091 51.9046C55.117 51.9271 55.1239 51.9412 55.1284 51.9492C55.1329 51.9508 55.1399 51.952 55.1488 51.9545C55.1812 51.9632 55.2339 51.973 55.3187 51.9788C57.4692 52.126 59.6249 52.4423 61.6955 53.2251L61.8816 53.3026C62.0621 53.3849 62.2283 53.4799 62.3789 53.5712C62.5986 53.7041 62.752 53.8069 62.9415 53.9151L63.3619 54.155L63.0464 54.8939L62.8645 55.3163L62.4143 55.2091C60.2199 54.6888 57.9678 54.4478 55.7124 54.4872C55.9032 55.2229 56.0827 55.9235 56.2867 56.6262C57.4116 60.4888 58.6906 64.2413 60.7811 67.6545L61.1436 68.2309C62.0023 69.5552 62.9639 70.7297 64.2796 71.5599L64.5897 71.7445C66.1382 72.6137 67.6866 72.6982 69.2402 71.8018C70.9151 70.8355 71.6648 69.3592 71.5815 67.4241L71.5804 67.4135V67.4029C71.5802 67.3222 71.5841 67.2412 71.5921 67.1609L71.6371 66.7182L72.0831 66.6737L72.2745 66.6556L72.8392 66.5993L72.8756 67.1609C72.8944 67.4511 72.9331 67.7052 72.9665 68.042C72.9897 68.276 73.0079 68.5296 72.9965 68.7903L72.9741 69.0536C72.3837 73.7291 67.6611 76.2231 63.1523 74.4015C61.0198 73.5389 59.3957 72.0921 58.0633 70.3699L57.8002 70.0216C55.9253 67.4767 54.618 64.6676 53.5444 61.7853L53.0973 60.5454C52.7652 59.5902 52.4614 58.6274 52.169 57.6655L51.309 54.7877C51.2985 54.7525 51.2886 54.7234 51.2801 54.6985C47.2845 55.0504 43.4836 55.9481 39.9994 57.8247L39.3064 58.2133C36.7497 59.7051 34.9557 61.8478 33.8335 64.4943L33.6185 65.0303C33.0934 66.4103 32.608 67.8048 32.1372 69.2075L30.7435 73.4345C30.5561 74.0028 30.2578 74.4981 29.7649 74.7741C29.3252 75.0202 28.8241 75.0403 28.3039 74.9185L28.0803 74.8581C27.7491 74.7565 27.3579 74.5985 27.1455 74.2424C26.9214 73.8662 26.995 73.4467 27.1081 73.0969L28.1541 69.8465C28.509 68.7593 28.8772 67.6729 29.2772 66.5993L30.013 64.6493C33.4851 55.5656 37.5018 46.7148 42.4167 38.2723L43.4841 36.4689C45.3773 33.3223 47.5145 30.3063 49.5506 27.2834L49.7057 27.0648C50.0816 26.5619 50.538 26.1213 50.9497 25.7315L50.956 25.7272L51.0726 25.6243C51.3531 25.3926 51.6763 25.217 52.0245 25.1041ZM49.0063 34.1675C44.5457 41.0145 40.8187 48.1166 37.563 55.4691C39.3624 54.4149 41.3197 53.6376 43.3675 53.1699L44.3344 52.9598C46.4134 52.5266 48.5251 52.2002 50.6202 51.8323C49.4817 46.1099 48.7559 40.2408 49.0063 34.1675Z" fill="url(#paint0_linear_87178_94365)" stroke="url(#paint1_linear_87178_94365)" stroke-width="0.75"/>
<defs>
<linearGradient id="paint0_linear_87178_94365" x1="49.9999" y1="25.5425" x2="49.9999" y2="74.4578" gradientUnits="userSpaceOnUse">
<stop stop-color="#6932D5"/>
<stop offset="1" stop-color="#7163C6"/>
</linearGradient>
<linearGradient id="paint1_linear_87178_94365" x1="50" y1="25" x2="50" y2="75" gradientUnits="userSpaceOnUse">
<stop stop-color="#6932D5"/>
<stop offset="1" stop-color="#7163C6"/>
</linearGradient>
</defs>
</svg>
